<svg xmlns="http://www.w3.org/2000/svg" width="512" height="512"><path d="M503.467 494.933H468.6c.418-2.833.734-5.675.734-8.533 0-23.765-13.986-44.279-34.133-53.888V145.067a8.53 8.53 0 0 0-8.533-8.533H238.933a8.536 8.536 0 0 0-8.533 8.533v265.796c-4.932-5.077-10.65-9.37-17.067-12.459V145.067c0-14.114 11.486-25.6 25.6-25.6h59.733V8.533A8.53 8.53 0 0 0 290.133 0h-230.4A8.536 8.536 0 0 0 51.2 8.533v486.4H8.533c-4.71 0-8.533 3.823-8.533 8.533S3.823 512 8.533 512h494.933c4.719 0 8.533-3.823 8.533-8.533s-3.813-8.534-8.532-8.534zM238.933 42.667a8.536 8.536 0 0 1 8.533-8.533 8.53 8.53 0 0 1 8.533 8.533v17.067a8.53 8.53 0 0 1-8.533 8.533 8.536 8.536 0 0 1-8.533-8.533V42.667zM375.467 179.2a8.536 8.536 0 0 1 8.533-8.533 8.53 8.53 0 0 1 8.533 8.533v17.067A8.53 8.53 0 0 1 384 204.8a8.536 8.536 0 0 1-8.533-8.533V179.2zm0 51.2a8.536 8.536 0 0 1 8.533-8.533 8.53 8.53 0 0 1 8.533 8.533v17.067A8.53 8.53 0 0 1 384 256a8.536 8.536 0 0 1-8.533-8.533V230.4zm0 51.2a8.536 8.536 0 0 1 8.533-8.533 8.53 8.53 0 0 1 8.533 8.533v17.067A8.53 8.53 0 0 1 384 307.2a8.536 8.536 0 0 1-8.533-8.533V281.6zm0 51.2a8.536 8.536 0 0 1 8.533-8.533 8.53 8.53 0 0 1 8.533 8.533v17.067A8.53 8.53 0 0 1 384 358.4a8.536 8.536 0 0 1-8.533-8.533V332.8zm0 51.2a8.536 8.536 0 0 1 8.533-8.533 8.53 8.53 0 0 1 8.533 8.533v17.067A8.53 8.53 0 0 1 384 409.6a8.536 8.536 0 0 1-8.533-8.533V384zm-51.2-204.8a8.536 8.536 0 0 1 8.533-8.533 8.53 8.53 0 0 1 8.533 8.533v17.067a8.53 8.53 0 0 1-8.533 8.533 8.536 8.536 0 0 1-8.533-8.533V179.2zm0 51.2a8.536 8.536 0 0 1 8.533-8.533 8.53 8.53 0 0 1 8.533 8.533v17.067A8.53 8.53 0 0 1 332.8 256a8.536 8.536 0 0 1-8.533-8.533V230.4zm0 51.2a8.536 8.536 0 0 1 8.533-8.533 8.53 8.53 0 0 1 8.533 8.533v17.067a8.53 8.53 0 0 1-8.533 8.533 8.536 8.536 0 0 1-8.533-8.533V281.6zm0 51.2a8.536 8.536 0 0 1 8.533-8.533 8.53 8.53 0 0 1 8.533 8.533v17.067a8.53 8.53 0 0 1-8.533 8.533 8.536 8.536 0 0 1-8.533-8.533V332.8zm0 51.2a8.536 8.536 0 0 1 8.533-8.533 8.53 8.53 0 0 1 8.533 8.533v17.067a8.53 8.53 0 0 1-8.533 8.533 8.536 8.536 0 0 1-8.533-8.533V384zm-51.2-204.8a8.536 8.536 0 0 1 8.533-8.533 8.53 8.53 0 0 1 8.533 8.533v17.067a8.53 8.53 0 0 1-8.533 8.533 8.536 8.536 0 0 1-8.533-8.533V179.2zm0 51.2a8.536 8.536 0 0 1 8.533-8.533 8.53 8.53 0 0 1 8.533 8.533v17.067A8.53 8.53 0 0 1 281.6 256a8.536 8.536 0 0 1-8.533-8.533V230.4zm0 51.2a8.536 8.536 0 0 1 8.533-8.533 8.53 8.53 0 0 1 8.533 8.533v17.067a8.53 8.53 0 0 1-8.533 8.533 8.536 8.536 0 0 1-8.533-8.533V281.6zm0 51.2a8.536 8.536 0 0 1 8.533-8.533 8.53 8.53 0 0 1 8.533 8.533v17.067a8.53 8.53 0 0 1-8.533 8.533 8.536 8.536 0 0 1-8.533-8.533V332.8zm0 51.2a8.536 8.536 0 0 1 8.533-8.533 8.53 8.53 0 0 1 8.533 8.533v17.067a8.53 8.53 0 0 1-8.533 8.533 8.536 8.536 0 0 1-8.533-8.533V384zM187.733 42.667a8.536 8.536 0 0 1 8.533-8.533 8.53 8.53 0 0 1 8.533 8.533v17.067a8.53 8.53 0 0 1-8.533 8.533 8.536 8.536 0 0 1-8.533-8.533V42.667zm0 51.2a8.536 8.536 0 0 1 8.533-8.533 8.53 8.53 0 0 1 8.533 8.533v17.067a8.53 8.53 0 0 1-8.533 8.533 8.536 8.536 0 0 1-8.533-8.533V93.867zm0 51.2a8.536 8.536 0 0 1 8.533-8.533 8.53 8.53 0 0 1 8.533 8.533v17.067a8.53 8.53 0 0 1-8.533 8.533 8.536 8.536 0 0 1-8.533-8.533v-17.067zm0 51.2a8.536 8.536 0 0 1 8.533-8.533 8.53 8.53 0 0 1 8.533 8.533v17.067a8.53 8.53 0 0 1-8.533 8.533 8.536 8.536 0 0 1-8.533-8.533v-17.067zm0 51.2a8.536 8.536 0 0 1 8.533-8.533 8.53 8.53 0 0 1 8.533 8.533v17.067a8.53 8.53 0 0 1-8.533 8.533 8.536 8.536 0 0 1-8.533-8.533v-17.067zm0 51.2a8.536 8.536 0 0 1 8.533-8.533 8.53 8.53 0 0 1 8.533 8.533v17.067a8.53 8.53 0 0 1-8.533 8.533 8.536 8.536 0 0 1-8.533-8.533v-17.067zm0 51.2a8.536 8.536 0 0 1 8.533-8.533 8.53 8.53 0 0 1 8.533 8.533v17.067a8.53 8.53 0 0 1-8.533 8.533 8.536 8.536 0 0 1-8.533-8.533v-17.067zm-51.2-307.2a8.536 8.536 0 0 1 8.533-8.533 8.53 8.53 0 0 1 8.533 8.533v17.067a8.53 8.53 0 0 1-8.533 8.533 8.536 8.536 0 0 1-8.533-8.533V42.667zm0 51.2a8.536 8.536 0 0 1 8.533-8.533 8.53 8.53 0 0 1 8.533 8.533v17.067a8.53 8.53 0 0 1-8.533 8.533 8.536 8.536 0 0 1-8.533-8.533V93.867zm0 51.2a8.536 8.536 0 0 1 8.533-8.533 8.53 8.53 0 0 1 8.533 8.533v17.067a8.53 8.53 0 0 1-8.533 8.533 8.536 8.536 0 0 1-8.533-8.533v-17.067zm0 51.2a8.536 8.536 0 0 1 8.533-8.533 8.53 8.53 0 0 1 8.533 8.533v17.067a8.53 8.53 0 0 1-8.533 8.533 8.536 8.536 0 0 1-8.533-8.533v-17.067zm0 51.2a8.536 8.536 0 0 1 8.533-8.533 8.53 8.53 0 0 1 8.533 8.533v17.067a8.53 8.53 0 0 1-8.533 8.533 8.536 8.536 0 0 1-8.533-8.533v-17.067zm0 51.2a8.536 8.536 0 0 1 8.533-8.533 8.53 8.53 0 0 1 8.533 8.533v17.067a8.53 8.53 0 0 1-8.533 8.533 8.536 8.536 0 0 1-8.533-8.533v-17.067zm0 51.2a8.536 8.536 0 0 1 8.533-8.533 8.53 8.53 0 0 1 8.533 8.533v17.067a8.53 8.53 0 0 1-8.533 8.533 8.536 8.536 0 0 1-8.533-8.533v-17.067zm0 51.2a8.536 8.536 0 0 1 8.533-8.533 8.53 8.53 0 0 1 8.533 8.533v2.261a60.194 60.194 0 0 0-16.529 17.434c-.282-.845-.538-1.698-.538-2.628v-17.067zm-51.2-358.4a8.536 8.536 0 0 1 8.533-8.533 8.53 8.53 0 0 1 8.533 8.533v17.067a8.53 8.53 0 0 1-8.533 8.533 8.536 8.536 0 0 1-8.533-8.533V42.667zm0 51.2a8.536 8.536 0 0 1 8.533-8.533 8.53 8.53 0 0 1 8.533 8.533v17.067a8.53 8.53 0 0 1-8.533 8.533 8.536 8.536 0 0 1-8.533-8.533V93.867zm0 51.2a8.536 8.536 0 0 1 8.533-8.533 8.53 8.53 0 0 1 8.533 8.533v17.067a8.53 8.53 0 0 1-8.533 8.533 8.536 8.536 0 0 1-8.533-8.533v-17.067zm0 51.2a8.536 8.536 0 0 1 8.533-8.533 8.53 8.53 0 0 1 8.533 8.533v17.067a8.53 8.53 0 0 1-8.533 8.533 8.536 8.536 0 0 1-8.533-8.533v-17.067zm0 51.2a8.536 8.536 0 0 1 8.533-8.533 8.53 8.53 0 0 1 8.533 8.533v17.067a8.53 8.53 0 0 1-8.533 8.533 8.536 8.536 0 0 1-8.533-8.533v-17.067zm0 51.2a8.536 8.536 0 0 1 8.533-8.533 8.53 8.53 0 0 1 8.533 8.533v17.067a8.53 8.53 0 0 1-8.533 8.533 8.536 8.536 0 0 1-8.533-8.533v-17.067zm0 51.2a8.536 8.536 0 0 1 8.533-8.533 8.53 8.53 0 0 1 8.533 8.533v17.067a8.53 8.53 0 0 1-8.533 8.533 8.536 8.536 0 0 1-8.533-8.533v-17.067zm0 51.2a8.536 8.536 0 0 1 8.533-8.533 8.53 8.53 0 0 1 8.533 8.533v17.067a8.53 8.53 0 0 1-8.533 8.533 8.536 8.536 0 0 1-8.533-8.533v-17.067zm.529 70.86c-.273-.836-.529-1.673-.529-2.594v-17.067a8.536 8.536 0 0 1 8.533-8.533 8.53 8.53 0 0 1 8.533 8.533v2.261a60.137 60.137 0 0 0-16.537 17.4zm188.425-5.034c-.017.077-.043.154-.06.23a49.421 49.421 0 0 0-.785 4.796c-.017.179-.06.358-.077.546a51.229 51.229 0 0 0-.299 5.402c0 2.884.282 5.743.76 8.55.068.375.213.742.29 1.126.486 2.475 1.126 4.915 1.98 7.296.017.034.017.068.026.094H94.729c.009-.009.009-.017.009-.026.026-.154.094-.29.128-.444a42.406 42.406 0 0 1 2.21-7.108c.333-.811.785-1.553 1.161-2.338.76-1.562 1.545-3.106 2.475-4.557.546-.836 1.169-1.621 1.766-2.415.956-1.271 1.937-2.517 3.029-3.669a41.012 41.012 0 0 1 2.219-2.176 41.405 41.405 0 0 1 3.601-2.97 37.772 37.772 0 0 1 2.569-1.783c1.348-.853 2.765-1.587 4.207-2.287.913-.435 1.792-.905 2.731-1.28 1.638-.649 3.354-1.126 5.077-1.579.845-.222 1.655-.512 2.526-.683 2.628-.512 5.325-.819 8.098-.819a8.53 8.53 0 0 0 8.533-8.533c0-23.526 19.149-42.667 42.667-42.667 2.466 0 4.873.256 7.236.666 1.621.299 3.183.768 4.736 1.246.631.188 1.28.324 1.894.538a42.96 42.96 0 0 1 5.871 2.62l.205.102a44.17 44.17 0 0 1 5.658 3.661c8.636 6.571 14.874 16.239 16.546 27.537a8.533 8.533 0 0 0 6.451 7.049 8.565 8.565 0 0 0 8.951-3.362c.137-.196.307-.367.444-.563.017-.017.043-.026.06-.051a35.103 35.103 0 0 1 5.436-5.794c.085-.077.179-.137.265-.205a34.035 34.035 0 0 1 6.135-4.079c.256-.128.529-.23.785-.35 2.116-1.024 4.318-1.869 6.622-2.432.179-.043.367-.06.555-.102 2.432-.555 4.932-.879 7.484-.879 2.116 0 4.181.265 6.212.64.469.094.947.179 1.408.29 1.98.452 3.917 1.05 5.769 1.852.23.102.444.239.666.341.99.461 1.911 1.075 2.859 1.63-7.76 7.022-13.375 16.357-15.696 26.939zm177.092 28.04H295.1c-1.22-2.014-2.287-4.079-3.055-6.221-.043-.145-.094-.282-.145-.427-.486-1.434-.845-2.893-1.135-4.369-.06-.316-.145-.631-.196-.956a31.745 31.745 0 0 1-.435-5.094c0-2.048.265-4.019.606-5.965.12-.631.247-1.263.393-1.877.324-1.365.759-2.68 1.237-3.977a35.22 35.22 0 0 1 1.553-3.482c.427-.828.845-1.655 1.331-2.44a33.127 33.127 0 0 1 2.125-3.029c.213-.273.444-.538.666-.811a34.8 34.8 0 0 1 10.249-8.363l.009-.008c16.102-8.61 34.782-2.603 44.075 10.982.247.375.512.734.742 1.118 1.169 1.869 2.21 3.831 3.004 5.939a8.533 8.533 0 0 0 7.492 5.53c.171.008.333.017.503.017.23 0 .444-.077.674-.094 2.953-.171 5.547-1.877 6.912-4.531 1.101-2.142 2.415-4.139 3.849-6.033.299-.401.631-.768.939-1.161 1.314-1.613 2.714-3.149 4.233-4.548.179-.154.341-.324.521-.478a43.112 43.112 0 0 1 19.575-9.916c.077-.017.154-.026.23-.043a42.03 42.03 0 0 1 7.322-.879c.043 0 .077-.009.119-.009 1.596-.043 3.209.162 4.813.299 1.203.102 2.415.162 3.584.358 1.562.273 3.115.725 4.668 1.178 17.681 5.214 30.711 21.41 30.711 40.755a42.01 42.01 0 0 1-.89 8.535z" fill="#25b6d2"/></svg>