<svg xmlns="http://www.w3.org/2000/svg" viewBox="0 0 485.959 485.959" width="512" height="512"><g fill="#25b6d2"><path d="M296.379 292.859v-19.3s61.1 1.9 90.1-27.7c0 0-42.2-12-34.6-88.7 7.6-76.8-9.5-144.2-71.2-138.5 0 0-26.8-32.2-80-12-18.3 7-67.3 24.5-64.8 130.9s-37.8 107-37.8 107 20.8 30.2 91.3 29.6v19.8l53.6 156.6 53.5-156.3-.1-1.4z"/><path d="M429.579 393.259c-3.5-19.3-16-35.8-33.6-44.5l-67.5-33.3c-3.9-1.9-7.7-4-11.5-6.1l21.3 62.8-29.7-2.3-65.6 80.7-65.6-80.8-29.7 2.3 21.7-62.8-13.5 6.9-65.9 32.6c-17.6 8.7-30.1 25.2-33.6 44.5l-5.2 28.7c49.8 39.6 117.4 64 191.8 64s142-24.4 191.8-64l-5.2-28.7z"/></g></svg>