<svg xmlns="http://www.w3.org/2000/svg" width="512" height="512"><g fill="#25b6d2"><path d="M248.434 291.265c4.203 4.118 10.929 4.118 15.131 0L475.793 83.271c6.78-6.645 2.214-18.325-7.278-18.371H43.485c-9.492.047-14.058 11.727-7.278 18.371l212.227 207.994z"/><path d="M511.999 108.265c-.071-9.472-11.614-14.129-18.378-7.498L264.74 325.084c-4.853 4.759-12.626 4.759-17.48 0L18.38 100.767C11.615 94.137.073 98.794.002 108.265c-.002.114-.002.227-.002.341v294.787C0 427.532 19.568 447.1 43.707 447.1h424.585c24.139 0 43.707-19.568 43.707-43.707V108.606a19.38 19.38 0 0 0 0-.341z"/></g></svg>