<svg xmlns="http://www.w3.org/2000/svg" viewBox="0 0 285 285"><path d="M280.492 124.251L150.948 12.848a12.962 12.962 0 0 0-16.896 0L4.508 124.251c-5.431 4.667-6.036 12.846-1.373 18.27 4.663 5.427 12.853 6.03 18.265 1.376L142.5 39.755l121.101 104.142a12.878 12.878 0 0 0 8.437 3.129c3.644 0 7.268-1.528 9.828-4.506 4.662-5.423 4.057-13.603-1.374-18.269zM106.145 275.284v-31.713l-7.057 31.713zm72.71 0h7.057l-7.057-31.713z"/><path d="M146.73 57.917a6.483 6.483 0 0 0-8.461 0l-97.623 84.208a6.477 6.477 0 0 0-2.245 4.901v121.778a6.48 6.48 0 0 0 6.481 6.479H72.48l15.901-71.111c.785-3.42 2.852-6.522 6.147-8.399.811-.461 19.05-10.505 42.992-11.819l3.229 6.479h.111l-8.752 68.108 9.587 16.743h1.607l9.587-16.743-8.752-68.108h.081l3.247-6.479c23.93 1.314 42.193 11.358 43.004 11.819 3.296 1.877 5.362 4.979 6.147 8.399l15.901 71.111h27.598c3.581 0 6.481-2.9 6.481-6.479V147.027a6.476 6.476 0 0 0-2.245-4.901L146.73 57.917zm-4.23 123.115c-18.134 0-32.849-21.026-32.849-39.16s14.715-32.835 32.849-32.835c18.122 0 32.83 14.701 32.83 32.835s-14.708 39.16-32.83 39.16z"/></svg>