<svg xmlns="http://www.w3.org/2000/svg" viewBox="0 0 401.138 401.138"><g fill="#010002"><path d="M98.795 226.834c10.987-6.978 18.286-19.227 18.286-33.205 0-21.745-17.628-39.368-39.368-39.368-21.745 0-39.373 17.623-39.373 39.368 0 13.978 7.31 26.227 18.286 33.205C23.959 236.021 0 266.017 0 301.622c0 42.92 155.416 42.92 155.416 0 0-35.605-23.954-65.596-56.621-74.788zm299.067-5.7l-75.152-75.152V96.417c0-6.173-5.004-11.188-11.194-11.188-6.179 0-11.183 5.015-11.183 11.188v27.195l-53.02-53.009c-4.362-4.368-11.444-4.368-15.8 0l-75.298 75.298a40.086 40.086 0 0 1 14.876 16.752l68.331-68.336 142.645 142.639a11.15 11.15 0 0 0 7.898 3.28c2.85 0 5.727-1.088 7.903-3.28 4.362-4.383 4.362-11.46-.006-15.822z"/><path d="M365.88 233.965L247.336 115.421c-2.105-2.105-4.939-3.285-7.903-3.285s-5.803 1.18-7.903 3.285l-57.235 57.23c.408 2.274.658 4.612.658 7 0 5.118-.968 10.089-2.785 14.68 16.051 11.672 26.173 30.606 26.173 51.225 0 7.19-3.236 23.437-30.47 31.275a93.07 93.07 0 0 1 3.383 24.797c0 11.792-5.586 21.033-14.615 28.153h37.638c7.49 0 14.718-3.166 19.831-8.703a26.908 26.908 0 0 0 7.201-18.335v-42.49c0-10.312 7.903-18.923 18.112-19.896 10.209.974 18.112 9.589 18.112 19.896v42.49c0 6.81 2.562 13.32 7.196 18.335a27.04 27.04 0 0 0 19.831 8.703h57.866c14.892 0 27.027-12.124 27.027-27.038v-57.866c0-1.692-.158-3.41-.5-5.118a11.15 11.15 0 0 0-3.073-5.794z"/><path d="M113.921 224.044c17.726 8.284 31.867 22.436 40.418 39.613 15.79-2.633 28.163-8.659 28.163-18.101 0-21.724-14.62-40.026-34.554-45.639 6.701-4.27 11.166-11.738 11.166-20.271 0-13.266-10.764-24.019-24.024-24.019-7.99 0-15.044 3.911-19.412 9.899 5.836 7.87 9.333 17.568 9.333 28.087-.005 11.34-4.003 22.028-11.09 30.431z"/></g></svg>