<svg xmlns="http://www.w3.org/2000/svg" width="512" height="512" viewBox="0 0 38 38"><path d="M36.5 14.334c0 10.693-12.766 22.754-13.309 23.262a1.5 1.5 0 0 1-2.017.029c-.074-.066-.389-.346-.861-.797 2.881-2.877 12.521-13.199 12.521-22.494 0-7.281-5.463-13.298-12.502-14.203A14.433 14.433 0 0 1 22.166 0C30.07.001 36.5 6.431 36.5 14.334zm-6.334 0c0 10.693-12.766 22.754-13.309 23.262a1.496 1.496 0 0 1-1.025.404c-.354 0-.709-.125-.992-.375-.545-.48-13.34-11.912-13.34-23.291C1.5 6.431 7.93.001 15.832.001c7.904 0 14.334 6.43 14.334 14.333zm-7.5 0a6.834 6.834 0 0 0-13.666 0 6.833 6.833 0 0 0 13.666 0z" fill="#25b6d2"/></svg>